<svg width="20" height="24" viewBox="0 0 20 24" fill="none" xmlns="http://www.w3.org/2000/svg">
<path d="M16.5321 19.1548H16.8244C18.6248 19.1548 19.822 18.165 19.822 16.0534V7.16418H14.5243C13.5722 7.16418 12.9783 6.57031 12.9783 5.61822V0H7.90685C5.9367 0 4.85265 1.07463 4.85265 3.02592V3.46897H6.30434C7.78431 3.46897 8.85893 3.81775 9.90528 4.85467L15.2596 10.209C16.2776 11.227 16.5321 12.3959 16.5321 13.8005V19.1548ZM14.7882 5.89159H19.6712C19.6241 5.57109 19.3884 5.27887 19.0302 4.91123L15.2219 1.00864C14.8731 0.650432 14.5714 0.414768 14.2509 0.377062L14.2603 5.35428C14.2603 5.73134 14.4112 5.89159 14.7882 5.89159ZM3.25013 24H12.0734C14.0907 24 15.1464 22.9348 15.1464 20.8987V13.5931H8.42531C7.22814 13.5931 6.64369 12.9992 6.64369 11.802V4.84525H3.25013C1.23285 4.84525 0.177078 5.91987 0.177078 7.95601V20.8987C0.177078 22.9442 1.23285 24 3.25013 24ZM8.53843 12.2074H14.9768C14.8636 11.802 14.6186 11.4156 14.1944 10.9819L9.22657 5.93873C8.79295 5.50511 8.42531 5.21288 8.01997 5.09034V11.6889C8.01997 12.0283 8.19907 12.2074 8.53843 12.2074Z" fill="#02A4FE"/>
</svg>
