<svg width="20" height="24" viewBox="0 0 20 24" fill="none" xmlns="http://www.w3.org/2000/svg">
<path d="M9.46451 24C4.18472 24 0.69043 20.9548 0.69043 16.387C0.69043 12.356 2.59641 11.0525 2.59641 8.54404C2.59641 8.0073 2.51973 7.39388 2.51973 7.06527C2.51973 6.49566 2.87026 6.13419 3.38509 6.13419C4.35999 6.13419 5.43347 6.92287 6.07975 8.2702C6.12357 8.05112 6.13452 7.85395 6.13452 7.63487C6.12357 5.53172 4.86387 3.75719 3.51654 2.13601C3.27555 1.85121 3.13315 1.52259 3.13315 1.21588C3.13315 0.416248 3.86706 0 4.98436 0C10.8337 0 19.3011 4.14058 19.3011 14.0429C19.3011 20.0237 15.3577 24 9.46451 24ZM9.7274 20.6262C12.2797 20.6262 13.5941 18.7859 13.5941 16.5952C13.5941 14.4044 12.3235 12.0602 9.95743 10.9758C9.82598 10.921 9.71645 10.9977 9.73835 11.1401C9.93552 12.8489 9.71645 14.4372 9.1578 15.2807C8.8949 14.6235 8.57724 14.0758 8.09527 13.6376C7.97477 13.539 7.87619 13.5938 7.85428 13.7252C7.67902 15.0397 6.34264 15.675 6.34264 17.581C6.34264 19.4103 7.68997 20.6262 9.7274 20.6262Z" fill="#02A4FE"/>
</svg>
