<svg width="96" height="96" viewBox="0 0 96 96" fill="none" xmlns="http://www.w3.org/2000/svg">
    <g clip-path="url(#clip0_402_19302)">
        <path d="M48.0014 96.1804C21.9136 96.1804 0.304688 74.6177 0.304688 48.4838C0.304688 22.3961 21.8675 0.787109 47.9552 0.787109C74.0891 0.787109 95.698 22.3961 95.698 48.4838C95.698 74.6177 74.0891 96.1804 48.0014 96.1804ZM36.6428 27.6136C28.7011 27.6136 22.8371 33.6161 22.8371 42.1581C22.8371 55.1789 37.0122 66.5374 45.4618 71.8935C46.2929 72.4014 47.4011 73.0016 48.0475 73.0016C48.7401 73.0016 49.7098 72.4014 50.4947 71.8935C58.8982 66.4451 73.1194 55.1789 73.1194 42.1581C73.1194 33.6161 67.2555 27.6136 59.3599 27.6136C54.1885 27.6136 50.2638 30.5687 48.0014 34.6781C45.6927 30.5687 41.8142 27.6136 36.6428 27.6136Z" fill="url(#paint0_linear_402_19302)"/>
    </g>
    <defs>
        <linearGradient id="paint0_linear_402_19302" x1="7" y1="1" x2="23.5948" y2="121.881" gradientUnits="userSpaceOnUse">
            <stop stop-color="#00A7FF"/>
            <stop offset="1" stop-color="#000F17"/>
        </linearGradient>
        <clipPath id="clip0_402_19302">
            <rect width="96" height="96" fill="white"/>
        </clipPath>
    </defs>
</svg>