<svg width="1024" height="1024" viewBox="0 0 1024 1024" fill="none" xmlns="http://www.w3.org/2000/svg">
<rect width="1024" height="1024" rx="256" fill="#010101"/>
<path d="M626.915 543.464C651.741 541.397 647.179 564.246 637.513 584.79C631.371 597.845 619.715 616.902 634.173 616.629C654.484 616.244 697.702 589.818 717.905 486.589C750.823 318.38 499.626 718.586 277.068 701.688C54.51 684.79 291.299 363.351 484.605 309.97C677.91 256.588 744.123 360.919 484.209 534.203C447.909 558.404 434.469 543.464 365.617 506.552C300.137 471.448 473.141 442.079 427.285 394.074C381.429 346.069 239.508 561.166 365.617 621.808C542.02 706.636 791.27 237.432 761.32 400.986C726.398 591.686 820.794 528.165 835.122 616.176C857.794 755.438 668.964 739.512 604.778 701.688C524.116 654.154 585.408 546.921 626.915 543.464Z" fill="#E8EBEF"/>
</svg>
