<svg width="16" height="16" viewBox="0 0 16 16" fill="none" xmlns="http://www.w3.org/2000/svg">
<path d="M1.13674 15C0.746216 14.6094 0.746216 13.9763 1.13674 13.5858L13.8647 0.857835C14.2552 0.46731 14.8884 0.46731 15.2789 0.857835C15.6694 1.24836 15.6694 1.88152 15.2789 2.27205L2.55095 15C2.16043 15.3905 1.52727 15.3905 1.13674 15Z" fill="#999999"/>
<path d="M0.722581 1.00011C1.1131 0.609585 1.74627 0.609585 2.13679 1.00011L14.8647 13.728C15.2552 14.1186 15.2552 14.7517 14.8647 15.1422C14.4742 15.5328 13.841 15.5328 13.4505 15.1422L0.722581 2.41432C0.332057 2.0238 0.332056 1.39063 0.722581 1.00011Z" fill="#999999"/>
</svg>
