<svg width="56" height="56" viewBox="0 0 56 56" fill="none" xmlns="http://www.w3.org/2000/svg">
<g clip-path="url(#clip0_402_19223)">
<circle cx="28" cy="28" r="20" fill="#E8EBEF"/>
<path fill-rule="evenodd" clip-rule="evenodd" d="M56 27.9865C56 43.333 43.333 56 27.9865 56C12.667 56 0 43.333 0 27.9865C0 12.667 12.6399 0 27.9594 0C43.3059 0 56 12.667 56 27.9865ZM28 12C37.5358 12 45 18.3502 45 26.2568C45 34.1323 37.5358 40.4825 28 40.4825C27.2993 40.4825 26.629 40.4514 26.0502 40.4202C25.6846 40.3891 25.5018 40.4825 25.1362 40.7004C22.0287 42.6304 18.9211 44 17.2151 44C15.8136 44 15.509 42.8794 16.3925 41.8521C16.4893 41.7296 16.5917 41.6022 16.6977 41.4702C17.292 40.7304 17.9988 39.8507 18.4642 38.9261C18.647 38.5525 18.6774 38.2101 18.2814 37.9611C13.9247 35.284 11 31.1128 11 26.2568C11 18.3502 18.4337 12 28 12Z" fill="#02A4FE"/>
</g>
<defs>
<clipPath id="clip0_402_19223">
<rect width="56" height="56" fill="white"/>
</clipPath>
</defs>
</svg>
