<svg width="123" height="16" viewBox="0 0 123 16" fill="none" xmlns="http://www.w3.org/2000/svg">
<path d="M16.2872 9.1651C17.2065 9.08855 17.0376 9.93462 16.6797 10.6954C16.4522 11.1788 16.0206 11.8845 16.556 11.8743C17.3081 11.8601 18.9084 10.8815 19.6565 7.05904C20.8755 0.830412 11.5738 15.6497 3.33269 15.024C-4.90846 14.3983 3.85967 2.49564 11.0176 0.518978C18.1755 -1.45769 20.6274 2.40559 11.003 8.82215C9.6588 9.7183 9.16113 9.1651 6.61158 7.79826C4.18692 6.49838 10.5931 5.41087 8.8951 3.63329C7.1971 1.85571 1.94186 9.82057 6.61158 12.0661C13.1437 15.2072 22.3732 -2.16704 21.2641 3.88925C19.971 10.9507 23.4664 8.59859 23.997 11.8576C24.8365 17.0143 17.8443 16.4246 15.4675 15.024C12.4807 13.2639 14.7503 9.29309 16.2872 9.1651Z" fill="#E8EBEF"/>
<path d="M32.0887 14.7662V4.94802H34.3385V6.58438H34.4411C34.6206 6.01762 34.9282 5.58083 35.3641 5.27401C35.8042 4.96293 36.3063 4.8074 36.8704 4.8074C36.9986 4.8074 37.1417 4.81379 37.2998 4.82657C37.4622 4.83509 37.5968 4.85001 37.7037 4.87132V6.99987C37.6054 6.96578 37.4494 6.93595 37.2357 6.91038C37.0264 6.88055 36.8234 6.86563 36.6268 6.86563C36.2038 6.86563 35.8235 6.95725 35.4859 7.14049C35.1526 7.31947 34.8898 7.56876 34.6975 7.88836C34.5052 8.20796 34.409 8.57657 34.409 8.99418V14.7662H32.0887Z" fill="#E8EBEF"/>
<path d="M43.1984 14.958C42.2113 14.958 41.3588 14.7534 40.6409 14.3443C39.9273 13.931 39.3782 13.3472 38.9936 12.5929C38.609 11.8344 38.4167 10.9416 38.4167 9.91464C38.4167 8.9047 38.609 8.01833 38.9936 7.25555C39.3825 6.4885 39.9252 5.89191 40.6217 5.46578C41.3182 5.03538 42.1365 4.82018 43.0766 4.82018C43.6834 4.82018 44.256 4.91819 44.7945 5.11421C45.3372 5.30597 45.8158 5.60427 46.2302 6.0091C46.649 6.41393 46.9781 6.92955 47.2174 7.55597C47.4566 8.17813 47.5763 8.91961 47.5763 9.78041V10.4899H39.5064V8.93026H45.3521C45.3478 8.48708 45.2517 8.09291 45.0637 7.74774C44.8757 7.3983 44.6129 7.12345 44.2753 6.92316C43.942 6.72288 43.5531 6.62274 43.1087 6.62274C42.6344 6.62274 42.2177 6.73779 41.8588 6.96791C41.4998 7.19376 41.2199 7.49205 41.0191 7.86279C40.8225 8.22927 40.7221 8.63197 40.7178 9.07089V10.4324C40.7178 11.0034 40.8225 11.4935 41.0319 11.9026C41.2413 12.3074 41.534 12.6185 41.9101 12.8358C42.2861 13.0489 42.7262 13.1554 43.2305 13.1554C43.5681 13.1554 43.8736 13.1085 44.1471 13.0148C44.4206 12.9168 44.6577 12.774 44.8586 12.5865C45.0594 12.399 45.2111 12.1668 45.3137 11.8898L47.4802 12.1327C47.3434 12.7037 47.0827 13.2023 46.6982 13.6284C46.3178 14.0503 45.8307 14.3784 45.2367 14.6128C44.6428 14.8429 43.9633 14.958 43.1984 14.958Z" fill="#E8EBEF"/>
<path d="M57.3207 7.54319L55.2055 7.7733C55.1457 7.56024 55.041 7.35995 54.8914 7.17245C54.7462 6.98495 54.5496 6.83367 54.3017 6.71862C54.0539 6.60356 53.7505 6.54603 53.3916 6.54603C52.9087 6.54603 52.5027 6.65043 52.1737 6.85924C51.8489 7.06805 51.6887 7.33864 51.693 7.67103C51.6887 7.95654 51.7934 8.18879 52.007 8.36776C52.225 8.54674 52.5839 8.69376 53.0839 8.80882L54.7632 9.16677C55.6948 9.36705 56.3871 9.68453 56.84 10.1192C57.2972 10.5538 57.528 11.1227 57.5323 11.8259C57.528 12.4438 57.3464 12.9892 56.9874 13.4622C56.6328 13.931 56.1392 14.2975 55.5068 14.5617C54.8744 14.8259 54.1479 14.958 53.3275 14.958C52.1224 14.958 51.1524 14.7065 50.4174 14.2037C49.6824 13.6966 49.2444 12.9913 49.1034 12.0879L51.3661 11.8706C51.4686 12.3138 51.6866 12.6483 52.0199 12.8742C52.3532 13.1 52.7869 13.2129 53.3211 13.2129C53.8723 13.2129 54.3146 13.1 54.6479 12.8742C54.9855 12.6483 55.1542 12.3692 55.1542 12.0368C55.1542 11.7555 55.0453 11.5233 54.8273 11.3401C54.6137 11.1568 54.2804 11.0162 53.8274 10.9182L52.1481 10.5666C51.2037 10.3706 50.505 10.0403 50.0521 9.57586C49.5991 9.10711 49.3748 8.51478 49.379 7.79887C49.3748 7.19376 49.5393 6.66961 49.8726 6.22643C50.2102 5.77899 50.6781 5.43382 51.2763 5.19092C51.8789 4.94376 52.5732 4.82018 53.3595 4.82018C54.5133 4.82018 55.4213 5.06521 56.0837 5.55526C56.7503 6.04532 57.1626 6.70796 57.3207 7.54319Z" fill="#E8EBEF"/>
<path d="M63.7401 14.958C62.7573 14.958 61.9133 14.7428 61.2083 14.3124C60.5075 13.882 59.9669 13.2875 59.5866 12.529C59.2106 11.7662 59.0225 10.8884 59.0225 9.89546C59.0225 8.8983 59.2148 8.01833 59.5994 7.25555C59.984 6.4885 60.5267 5.89191 61.2275 5.46578C61.9326 5.03538 62.7658 4.82018 63.7273 4.82018C64.5264 4.82018 65.2336 4.9672 65.8489 5.26123C66.4685 5.551 66.9621 5.96222 67.3296 6.49489C67.6971 7.0233 67.9065 7.6412 67.9577 8.34859H65.74C65.6502 7.87558 65.4366 7.4814 65.099 7.16606C64.7657 6.84646 64.3191 6.68666 63.7594 6.68666C63.285 6.68666 62.8684 6.8145 62.5094 7.07018C62.1505 7.3216 61.8706 7.68382 61.6698 8.15683C61.4732 8.62984 61.3749 9.1966 61.3749 9.85711C61.3749 10.5261 61.4732 11.1014 61.6698 11.583C61.8663 12.0602 62.142 12.4288 62.4966 12.6888C62.8556 12.9445 63.2765 13.0723 63.7594 13.0723C64.1012 13.0723 64.4067 13.0084 64.6759 12.8805C64.9494 12.7484 65.178 12.5588 65.3618 12.3117C65.5455 12.0645 65.6716 11.7641 65.74 11.4104H67.9577C67.9022 12.105 67.6971 12.7207 67.3424 13.2577C66.9877 13.7903 66.5049 14.208 65.8938 14.5105C65.2827 14.8088 64.5648 14.958 63.7401 14.958Z" fill="#E8EBEF"/>
<path d="M69.8631 14.7662V4.94802H72.1834V14.7662H69.8631ZM71.0296 3.55455C70.6621 3.55455 70.3459 3.43311 70.081 3.19021C69.816 2.94305 69.6836 2.64688 69.6836 2.30171C69.6836 1.95228 69.816 1.65612 70.081 1.41322C70.3459 1.16606 70.6621 1.04248 71.0296 1.04248C71.4014 1.04248 71.7176 1.16606 71.9783 1.41322C72.2432 1.65612 72.3757 1.95228 72.3757 2.30171C72.3757 2.64688 72.2432 2.94305 71.9783 3.19021C71.7176 3.43311 71.4014 3.55455 71.0296 3.55455Z" fill="#E8EBEF"/>
<path d="M78.9281 14.958C77.941 14.958 77.0885 14.7534 76.3706 14.3443C75.6569 13.931 75.1078 13.3472 74.7233 12.5929C74.3387 11.8344 74.1464 10.9416 74.1464 9.91464C74.1464 8.9047 74.3387 8.01833 74.7233 7.25555C75.1121 6.4885 75.6548 5.89191 76.3513 5.46578C77.0479 5.03538 77.8662 4.82018 78.8063 4.82018C79.4131 4.82018 79.9857 4.91819 80.5241 5.11421C81.0668 5.30597 81.5454 5.60427 81.9599 6.0091C82.3786 6.41393 82.7077 6.92955 82.947 7.55597C83.1863 8.17813 83.3059 8.91961 83.3059 9.78041V10.4899H75.236V8.93026H81.0817C81.0775 8.48708 80.9813 8.09291 80.7933 7.74774C80.6053 7.3983 80.3425 7.12345 80.0049 6.92316C79.6716 6.72288 79.2827 6.62274 78.8383 6.62274C78.364 6.62274 77.9474 6.73779 77.5884 6.96791C77.2295 7.19376 76.9496 7.49205 76.7487 7.86279C76.5522 8.22927 76.4518 8.63197 76.4475 9.07089V10.4324C76.4475 11.0034 76.5522 11.4935 76.7616 11.9026C76.9709 12.3074 77.2637 12.6185 77.6397 12.8358C78.0157 13.0489 78.4559 13.1554 78.9601 13.1554C79.2977 13.1554 79.6032 13.1085 79.8767 13.0148C80.1502 12.9168 80.3874 12.774 80.5882 12.5865C80.789 12.399 80.9407 12.1668 81.0433 11.8898L83.2098 12.1327C83.073 12.7037 82.8124 13.2023 82.4278 13.6284C82.0475 14.0503 81.5603 14.3784 80.9664 14.6128C80.3724 14.8429 79.693 14.958 78.9281 14.958Z" fill="#E8EBEF"/>
<path d="M87.5893 9.01336V14.7662H85.2689V4.94802H87.4867V6.61634H87.6021C87.8286 6.06663 88.1896 5.62984 88.6853 5.30597C89.1853 4.98211 89.8028 4.82018 90.5377 4.82018C91.2172 4.82018 91.809 4.96507 92.3133 5.25484C92.8218 5.54461 93.2149 5.96436 93.4926 6.51407C93.7747 7.06379 93.9136 7.73069 93.9093 8.51478V14.7662H91.5889V8.87274C91.5889 8.21649 91.418 7.70299 91.0762 7.33225C90.7386 6.96151 90.2707 6.77614 89.6724 6.77614C89.2665 6.77614 88.9054 6.86563 88.5892 7.04461C88.2772 7.21933 88.0315 7.47288 87.8521 7.80526C87.6768 8.13765 87.5893 8.54035 87.5893 9.01336Z" fill="#E8EBEF"/>
<path d="M100.563 14.958C99.5798 14.958 98.7358 14.7428 98.0308 14.3124C97.33 13.882 96.7894 13.2875 96.4091 12.529C96.0331 11.7662 95.845 10.8884 95.845 9.89546C95.845 8.8983 96.0373 8.01833 96.4219 7.25555C96.8065 6.4885 97.3492 5.89191 98.05 5.46578C98.7551 5.03538 99.5883 4.82018 100.55 4.82018C101.349 4.82018 102.056 4.9672 102.671 5.26123C103.291 5.551 103.785 5.96222 104.152 6.49489C104.52 7.0233 104.729 7.6412 104.78 8.34859H102.562C102.473 7.87558 102.259 7.4814 101.921 7.16606C101.588 6.84646 101.142 6.68666 100.582 6.68666C100.108 6.68666 99.6909 6.8145 99.3319 7.07018C98.973 7.3216 98.6931 7.68382 98.4923 8.15683C98.2957 8.62984 98.1974 9.1966 98.1974 9.85711C98.1974 10.5261 98.2957 11.1014 98.4923 11.583C98.6888 12.0602 98.9644 12.4288 99.3191 12.6888C99.6781 12.9445 100.099 13.0723 100.582 13.0723C100.924 13.0723 101.229 13.0084 101.498 12.8805C101.772 12.7484 102.001 12.5588 102.184 12.3117C102.368 12.0645 102.494 11.7641 102.562 11.4104H104.78C104.725 12.105 104.52 12.7207 104.165 13.2577C103.81 13.7903 103.327 14.208 102.716 14.5105C102.105 14.8088 101.387 14.958 100.563 14.958Z" fill="#E8EBEF"/>
<path d="M111.044 14.958C110.057 14.958 109.205 14.7534 108.487 14.3443C107.773 13.931 107.224 13.3472 106.839 12.5929C106.455 11.8344 106.263 10.9416 106.263 9.91464C106.263 8.9047 106.455 8.01833 106.839 7.25555C107.228 6.4885 107.771 5.89191 108.467 5.46578C109.164 5.03538 109.982 4.82018 110.922 4.82018C111.529 4.82018 112.102 4.91819 112.64 5.11421C113.183 5.30597 113.662 5.60427 114.076 6.0091C114.495 6.41393 114.824 6.92955 115.063 7.55597C115.302 8.17813 115.422 8.91961 115.422 9.78041V10.4899H107.352V8.93026H113.198C113.194 8.48708 113.097 8.09291 112.909 7.74774C112.721 7.3983 112.459 7.12345 112.121 6.92316C111.788 6.72288 111.399 6.62274 110.954 6.62274C110.48 6.62274 110.063 6.73779 109.705 6.96791C109.346 7.19376 109.066 7.49205 108.865 7.86279C108.668 8.22927 108.568 8.63197 108.564 9.07089V10.4324C108.564 11.0034 108.668 11.4935 108.878 11.9026C109.087 12.3074 109.38 12.6185 109.756 12.8358C110.132 13.0489 110.572 13.1554 111.076 13.1554C111.414 13.1554 111.719 13.1085 111.993 13.0148C112.266 12.9168 112.503 12.774 112.704 12.5865C112.905 12.399 113.057 12.1668 113.159 11.8898L115.326 12.1327C115.189 12.7037 114.929 13.2023 114.544 13.6284C114.164 14.0503 113.676 14.3784 113.082 14.6128C112.489 14.8429 111.809 14.958 111.044 14.958Z" fill="#E8EBEF"/>
<path d="M117.385 14.7662V4.94802H119.635V6.58438H119.737C119.917 6.01762 120.225 5.58083 120.66 5.27401C121.101 4.96293 121.603 4.8074 122.167 4.8074C122.295 4.8074 122.438 4.81379 122.596 4.82657C122.759 4.83509 122.893 4.85001 123 4.87132V6.99987C122.902 6.96578 122.746 6.93595 122.532 6.91038C122.323 6.88055 122.12 6.86563 121.923 6.86563C121.5 6.86563 121.12 6.95725 120.782 7.14049C120.449 7.31947 120.186 7.56876 119.994 7.88836C119.802 8.20796 119.705 8.57657 119.705 8.99418V14.7662H117.385Z" fill="#E8EBEF"/>
</svg>
