<svg width="56" height="56" viewBox="0 0 56 56" fill="none" xmlns="http://www.w3.org/2000/svg">
<g clip-path="url(#clip0_750_1169)">
<path d="M28 56C43.464 56 56 43.464 56 28C56 12.536 43.464 0 28 0C12.536 0 0 12.536 0 28C0 43.464 12.536 56 28 56Z" fill="#02A4FE"/>
<path d="M41.8715 16.5017C42.1189 14.9024 40.5984 13.64 39.1763 14.2644L10.8533 26.6996C9.83351 27.1474 9.9081 28.6922 10.9658 29.0289L16.8066 30.889C17.9215 31.244 19.1285 31.0604 20.1021 30.3879L33.2708 21.2899C33.6679 21.0155 34.1008 21.5802 33.7614 21.9299L24.2823 31.7029C23.3628 32.651 23.5452 34.2575 24.6514 34.9511L35.2643 41.6064C36.4547 42.3527 37.986 41.603 38.2085 40.1644L41.8715 16.5017Z" fill="#E8EBEF"/>
</g>
<defs>
<clipPath id="clip0_750_1169">
<rect width="56" height="56" fill="white"/>
</clipPath>
</defs>
</svg>
