<svg width="79" height="56" viewBox="0 0 79 56" fill="none" xmlns="http://www.w3.org/2000/svg">
<rect x="27.0547" y="12.8125" width="27.0508" height="27.5254" fill="#E8EBEF"/>
<path fill-rule="evenodd" clip-rule="evenodd" d="M31.2597 38.2893L31.2573 15.9976L52.5426 27.1819L31.2597 38.2893ZM77.9958 12.1348C77.9958 12.1348 77.2252 6.6679 74.8643 4.26047C71.8682 1.09932 68.5102 1.08442 66.9715 0.900948C55.9473 0.0976446 39.411 0.0976563 39.411 0.0976563H39.3765C39.3765 0.0976563 22.8402 0.0976446 11.8159 0.900948C10.2748 1.08442 6.91929 1.09932 3.92074 4.26047C1.55981 6.6679 0.791696 12.1348 0.791696 12.1348C0.791696 12.1348 0.00390625 18.5563 0.00390625 24.9752V30.9951C0.00390625 37.4165 0.791696 43.8355 0.791696 43.8355C0.791696 43.8355 1.55981 49.3024 3.92074 51.7099C6.91929 54.871 10.8558 54.7718 12.6086 55.1016C18.911 55.7115 39.3937 55.8999 39.3937 55.8999C39.3937 55.8999 55.9473 55.8751 66.9715 55.0718C68.5102 54.8859 71.8682 54.871 74.8643 51.7099C77.2252 49.3024 77.9958 43.8355 77.9958 43.8355C77.9958 43.8355 78.7836 37.4165 78.7836 30.9951V24.9752C78.7836 18.5563 77.9958 12.1348 77.9958 12.1348Z" fill="#02A4FE"/>
</svg>
