<svg width="24" height="24" viewBox="0 0 24 24" fill="none" xmlns="http://www.w3.org/2000/svg">
<g clip-path="url(#clip0_402_19282)">
<path d="M12.0001 24C18.5635 24 24.0001 18.575 24.0001 12C24.0001 5.43659 18.5635 0 11.9885 0C5.4251 0 0.00012207 5.43659 0.00012207 12C0.00012207 18.575 5.43671 24 12.0001 24ZM12.0001 22.1413C6.99335 22.1413 2.75327 18.3892 1.98657 13.5682C2.05627 13.5799 2.11435 13.5799 2.18405 13.5799C3.42703 13.5799 4.25182 12.5227 4.25182 10.908C4.25182 10.3969 4.34475 10.2459 4.68163 10.0833L5.4251 9.73475C5.82006 9.53727 6.18018 9.68829 6.42413 10.0252L7.80651 12.0465C9.08434 13.8935 10.3854 14.6486 11.5819 14.6486C12.732 14.6486 13.5103 13.9167 13.5103 12.7899C13.5103 12.1278 13.1734 11.5586 12.6274 11.1985C12.2789 10.9545 12.3835 10.6757 12.6971 10.6757C15.5316 10.6757 17.0301 9.65344 17.0301 7.59729C17.0301 4.87899 14.73 4.72798 14.73 4.03098C14.73 3.61278 15.2528 3.38045 15.6129 2.54405C19.3999 4.01936 22.1415 7.72507 22.1415 12C22.1415 13.0687 21.9672 14.1026 21.6536 15.0784C21.0495 14.5789 20.5616 14.3698 19.9924 14.3698C19.5509 14.3698 19.307 14.486 19.063 14.5673C18.8191 14.637 18.7029 14.5324 18.6681 14.3233C18.5519 13.4753 18.0175 13.1384 17.1579 13.1384H16.5538C15.8452 13.1384 15.276 13.5102 14.8462 14.1723L14.6603 14.4627C14.3699 14.9158 14.1144 15.2875 13.8588 15.5315C13.6148 15.7522 13.429 15.8567 12.9527 16.0077L12.4183 16.1704C11.6052 16.4259 11.3612 17.1346 11.5819 17.9245L12.1395 19.8877C12.3486 20.6079 12.7784 20.9797 13.4754 20.9797C13.7775 20.9797 14.1492 20.8635 14.5326 20.6776L14.7068 20.5963C14.974 20.4685 15.1715 20.4221 15.369 20.4221C15.822 20.4221 16.124 20.6428 16.4725 21.0842C15.125 21.758 13.6032 22.1413 12.0001 22.1413Z" fill="#02A4FE"/>
</g>
<defs>
<clipPath id="clip0_402_19282">
<rect width="24" height="24" fill="white"/>
</clipPath>
</defs>
</svg>
